  0
SECTION
  2
HEADER
  9
$ACADVER
  1
AC1009
  9
$EXTMIN
 10
0.0
 20
0.0
 30
0.0
  9
$EXTMAX
 10
1000.0
 20
1000.0
 30
0.0
  9
$FILLMODE
 70
 0
  9
$SPLFRAME
 70
 1
  0
ENDSEC
  0
SECTION
  2
TABLES
  0
TABLE
  2
LAYER
 70
1
  0
LAYER
  2
0
 70
     0
 62
     7
  6
CONTINUOUS
  0
ENDTAB
  0
ENDSEC
  0
SECTION
  2
ENTITIES
  0
LINE
  8
0
 62
     0
 10
0.0950846
 20
95.5075
 30
0.0
 11
285.845
 21
95.5075
 31
0.0
  0
LINE
  8
0
 62
     0
 10
285.845
 20
95.5075
 30
0.0
 11
285.845
 21
0.257693
 31
0.0
  0
LINE
  8
0
 62
     0
 10
285.845
 20
0.257693
 30
0.0
 11
0.0950846
 21
0.257693
 31
0.0
  0
LINE
  8
0
 62
     0
 10
0.0950846
 20
0.257693
 30
0.0
 11
0.0950846
 21
95.5075
 31
0.0
  0
LINE
  8
0
 62
     0
 10
152.637
 20
16.7831
 30
0.0
 11
152.637
 21
12.0826
 31
0.0
  0
LINE
  8
0
 62
     0
 10
152.637
 20
12.0826
 30
0.0
 11
151.113
 21
12.0826
 31
0.0
  0
LINE
  8
0
 62
     0
 10
151.113
 20
12.0826
 30
0.0
 11
151.113
 21
15.3128
 31
0.0
  0
LINE
  8
0
 62
     0
 10
151.113
 20
15.3128
 30
0.0
 11
144.362
 21
15.3128
 31
0.0
  0
LINE
  8
0
 62
     0
 10
144.362
 20
15.3128
 30
0.0
 11
144.362
 21
12.0826
 31
0.0
  0
LINE
  8
0
 62
     0
 10
144.362
 20
12.0826
 30
0.0
 11
143.538
 21
12.0826
 31
0.0
  0
LINE
  8
0
 62
     0
 10
143.538
 20
12.0826
 30
0.0
 11
143.538
 21
9.28384
 31
0.0
  0
LINE
  8
0
 62
     0
 10
143.538
 20
9.28384
 30
0.0
 11
144.362
 21
9.28384
 31
0.0
  0
LINE
  8
0
 62
     0
 10
144.362
 20
9.28384
 30
0.0
 11
144.362
 21
3.01377
 31
0.0
  0
LINE
  8
0
 62
     0
 10
144.362
 20
3.01377
 30
0.0
 11
146.087
 21
3.01377
 31
0.0
  0
LINE
  8
0
 62
     0
 10
146.087
 20
3.01377
 30
0.0
 11
146.087
 21
1.8135
 31
0.0
  0
LINE
  8
0
 62
     0
 10
146.087
 20
1.8135
 30
0.0
 11
149.388
 21
1.8135
 31
0.0
  0
LINE
  8
0
 62
     0
 10
149.388
 20
1.8135
 30
0.0
 11
149.388
 21
3.01377
 31
0.0
  0
LINE
  8
0
 62
     0
 10
149.388
 20
3.01377
 30
0.0
 11
151.113
 21
3.01377
 31
0.0
  0
LINE
  8
0
 62
     0
 10
151.113
 20
3.01377
 30
0.0
 11
151.113
 21
7.48411
 31
0.0
  0
LINE
  8
0
 62
     0
 10
151.113
 20
7.48411
 30
0.0
 11
152.637
 21
7.48411
 31
0.0
  0
LINE
  8
0
 62
     0
 10
152.637
 20
7.48411
 30
0.0
 11
152.637
 21
2.78364
 31
0.0
  0
LINE
  8
0
 62
     0
 10
152.637
 20
2.78364
 30
0.0
 11
166.638
 21
2.78364
 31
0.0
  0
LINE
  8
0
 62
     0
 10
166.638
 20
2.78364
 30
0.0
 11
166.638
 21
7.48411
 31
0.0
  0
LINE
  8
0
 62
     0
 10
166.638
 20
7.48411
 30
0.0
 11
168.162
 21
7.48411
 31
0.0
  0
LINE
  8
0
 62
     0
 10
168.162
 20
7.48411
 30
0.0
 11
168.162
 21
3.01377
 31
0.0
  0
LINE
  8
0
 62
     0
 10
168.162
 20
3.01377
 30
0.0
 11
169.887
 21
3.01377
 31
0.0
  0
LINE
  8
0
 62
     0
 10
169.887
 20
3.01377
 30
0.0
 11
169.887
 21
1.8135
 31
0.0
  0
LINE
  8
0
 62
     0
 10
169.887
 20
1.8135
 30
0.0
 11
173.188
 21
1.8135
 31
0.0
  0
LINE
  8
0
 62
     0
 10
173.188
 20
1.8135
 30
0.0
 11
173.188
 21
3.01377
 31
0.0
  0
LINE
  8
0
 62
     0
 10
173.188
 20
3.01377
 30
0.0
 11
174.913
 21
3.01377
 31
0.0
  0
LINE
  8
0
 62
     0
 10
174.913
 20
3.01377
 30
0.0
 11
174.913
 21
9.28384
 31
0.0
  0
LINE
  8
0
 62
     0
 10
174.913
 20
9.28384
 30
0.0
 11
175.737
 21
9.28384
 31
0.0
  0
LINE
  8
0
 62
     0
 10
175.737
 20
9.28384
 30
0.0
 11
175.737
 21
12.0826
 31
0.0
  0
LINE
  8
0
 62
     0
 10
175.737
 20
12.0826
 30
0.0
 11
174.913
 21
12.0826
 31
0.0
  0
LINE
  8
0
 62
     0
 10
174.913
 20
12.0826
 30
0.0
 11
174.913
 21
15.3128
 31
0.0
  0
LINE
  8
0
 62
     0
 10
174.913
 20
15.3128
 30
0.0
 11
168.162
 21
15.3128
 31
0.0
  0
LINE
  8
0
 62
     0
 10
168.162
 20
15.3128
 30
0.0
 11
168.162
 21
12.0826
 31
0.0
  0
LINE
  8
0
 62
     0
 10
168.162
 20
12.0826
 30
0.0
 11
166.638
 21
12.0826
 31
0.0
  0
LINE
  8
0
 62
     0
 10
166.638
 20
12.0826
 30
0.0
 11
166.638
 21
16.7831
 31
0.0
  0
LINE
  8
0
 62
     0
 10
166.638
 20
16.7831
 30
0.0
 11
152.637
 21
16.7831
 31
0.0
  0
LINE
  8
0
 62
     0
 10
85.9621
 20
16.7831
 30
0.0
 11
85.9621
 21
12.0826
 31
0.0
  0
LINE
  8
0
 62
     0
 10
85.9621
 20
12.0826
 30
0.0
 11
84.4381
 21
12.0826
 31
0.0
  0
LINE
  8
0
 62
     0
 10
84.4381
 20
12.0826
 30
0.0
 11
84.4381
 21
15.3128
 31
0.0
  0
LINE
  8
0
 62
     0
 10
84.4381
 20
15.3128
 30
0.0
 11
77.687
 21
15.3128
 31
0.0
  0
LINE
  8
0
 62
     0
 10
77.687
 20
15.3128
 30
0.0
 11
77.687
 21
12.0826
 31
0.0
  0
LINE
  8
0
 62
     0
 10
77.687
 20
12.0826
 30
0.0
 11
76.8629
 21
12.0826
 31
0.0
  0
LINE
  8
0
 62
     0
 10
76.8629
 20
12.0826
 30
0.0
 11
76.8629
 21
9.28384
 31
0.0
  0
LINE
  8
0
 62
     0
 10
76.8629
 20
9.28384
 30
0.0
 11
77.687
 21
9.28384
 31
0.0
  0
LINE
  8
0
 62
     0
 10
77.687
 20
9.28384
 30
0.0
 11
77.687
 21
3.01377
 31
0.0
  0
LINE
  8
0
 62
     0
 10
77.687
 20
3.01377
 30
0.0
 11
79.412
 21
3.01377
 31
0.0
  0
LINE
  8
0
 62
     0
 10
79.412
 20
3.01377
 30
0.0
 11
79.412
 21
1.8135
 31
0.0
  0
LINE
  8
0
 62
     0
 10
79.412
 20
1.8135
 30
0.0
 11
82.7126
 21
1.8135
 31
0.0
  0
LINE
  8
0
 62
     0
 10
82.7126
 20
1.8135
 30
0.0
 11
82.7126
 21
3.01377
 31
0.0
  0
LINE
  8
0
 62
     0
 10
82.7126
 20
3.01377
 30
0.0
 11
84.4381
 21
3.01377
 31
0.0
  0
LINE
  8
0
 62
     0
 10
84.4381
 20
3.01377
 30
0.0
 11
84.4381
 21
7.48411
 31
0.0
  0
LINE
  8
0
 62
     0
 10
84.4381
 20
7.48411
 30
0.0
 11
85.9621
 21
7.48411
 31
0.0
  0
LINE
  8
0
 62
     0
 10
85.9621
 20
7.48411
 30
0.0
 11
85.9621
 21
2.78364
 31
0.0
  0
LINE
  8
0
 62
     0
 10
85.9621
 20
2.78364
 30
0.0
 11
99.9628
 21
2.78364
 31
0.0
  0
LINE
  8
0
 62
     0
 10
99.9628
 20
2.78364
 30
0.0
 11
99.9628
 21
7.48411
 31
0.0
  0
LINE
  8
0
 62
     0
 10
99.9628
 20
7.48411
 30
0.0
 11
101.487
 21
7.48411
 31
0.0
  0
LINE
  8
0
 62
     0
 10
101.487
 20
7.48411
 30
0.0
 11
101.487
 21
3.01377
 31
0.0
  0
LINE
  8
0
 62
     0
 10
101.487
 20
3.01377
 30
0.0
 11
103.212
 21
3.01377
 31
0.0
  0
LINE
  8
0
 62
     0
 10
103.212
 20
3.01377
 30
0.0
 11
103.212
 21
1.8135
 31
0.0
  0
LINE
  8
0
 62
     0
 10
103.212
 20
1.8135
 30
0.0
 11
106.513
 21
1.8135
 31
0.0
  0
LINE
  8
0
 62
     0
 10
106.513
 20
1.8135
 30
0.0
 11
106.513
 21
3.01377
 31
0.0
  0
LINE
  8
0
 62
     0
 10
106.513
 20
3.01377
 30
0.0
 11
108.238
 21
3.01377
 31
0.0
  0
LINE
  8
0
 62
     0
 10
108.238
 20
3.01377
 30
0.0
 11
108.238
 21
9.28384
 31
0.0
  0
LINE
  8
0
 62
     0
 10
108.238
 20
9.28384
 30
0.0
 11
109.062
 21
9.28384
 31
0.0
  0
LINE
  8
0
 62
     0
 10
109.062
 20
9.28384
 30
0.0
 11
109.062
 21
12.0826
 31
0.0
  0
LINE
  8
0
 62
     0
 10
109.062
 20
12.0826
 30
0.0
 11
108.238
 21
12.0826
 31
0.0
  0
LINE
  8
0
 62
     0
 10
108.238
 20
12.0826
 30
0.0
 11
108.238
 21
15.3128
 31
0.0
  0
LINE
  8
0
 62
     0
 10
108.238
 20
15.3128
 30
0.0
 11
101.487
 21
15.3128
 31
0.0
  0
LINE
  8
0
 62
     0
 10
101.487
 20
15.3128
 30
0.0
 11
101.487
 21
12.0826
 31
0.0
  0
LINE
  8
0
 62
     0
 10
101.487
 20
12.0826
 30
0.0
 11
99.9628
 21
12.0826
 31
0.0
  0
LINE
  8
0
 62
     0
 10
99.9628
 20
12.0826
 30
0.0
 11
99.9628
 21
16.7831
 31
0.0
  0
LINE
  8
0
 62
     0
 10
99.9628
 20
16.7831
 30
0.0
 11
85.9621
 21
16.7831
 31
0.0
  0
LINE
  8
0
 62
     0
 10
269.32
 20
16.7831
 30
0.0
 11
283.319
 21
16.7831
 31
0.0
  0
LINE
  8
0
 62
     0
 10
283.319
 20
16.7831
 30
0.0
 11
283.319
 21
2.78364
 31
0.0
  0
LINE
  8
0
 62
     0
 10
283.319
 20
2.78364
 30
0.0
 11
269.32
 21
2.78364
 31
0.0
  0
LINE
  8
0
 62
     0
 10
269.32
 20
2.78364
 30
0.0
 11
269.32
 21
16.7831
 31
0.0
  0
LINE
  8
0
 62
     0
 10
250.27
 20
16.7831
 30
0.0
 11
264.269
 21
16.7831
 31
0.0
  0
LINE
  8
0
 62
     0
 10
264.269
 20
16.7831
 30
0.0
 11
264.269
 21
2.78364
 31
0.0
  0
LINE
  8
0
 62
     0
 10
264.269
 20
2.78364
 30
0.0
 11
250.27
 21
2.78364
 31
0.0
  0
LINE
  8
0
 62
     0
 10
250.27
 20
2.78364
 30
0.0
 11
250.27
 21
16.7831
 31
0.0
  0
LINE
  8
0
 62
     0
 10
231.22
 20
16.7831
 30
0.0
 11
245.219
 21
16.7831
 31
0.0
  0
LINE
  8
0
 62
     0
 10
245.219
 20
16.7831
 30
0.0
 11
245.219
 21
2.78364
 31
0.0
  0
LINE
  8
0
 62
     0
 10
245.219
 20
2.78364
 30
0.0
 11
231.22
 21
2.78364
 31
0.0
  0
LINE
  8
0
 62
     0
 10
231.22
 20
2.78364
 30
0.0
 11
231.22
 21
16.7831
 31
0.0
  0
LINE
  8
0
 62
     0
 10
209.787
 20
16.7831
 30
0.0
 11
223.788
 21
16.7831
 31
0.0
  0
LINE
  8
0
 62
     0
 10
223.788
 20
16.7831
 30
0.0
 11
223.788
 21
2.78364
 31
0.0
  0
LINE
  8
0
 62
     0
 10
223.788
 20
2.78364
 30
0.0
 11
209.787
 21
2.78364
 31
0.0
  0
LINE
  8
0
 62
     0
 10
209.787
 20
2.78364
 30
0.0
 11
209.787
 21
16.7831
 31
0.0
  0
LINE
  8
0
 62
     0
 10
185.976
 20
16.7831
 30
0.0
 11
199.975
 21
16.7831
 31
0.0
  0
LINE
  8
0
 62
     0
 10
199.975
 20
16.7831
 30
0.0
 11
199.975
 21
2.78364
 31
0.0
  0
LINE
  8
0
 62
     0
 10
199.975
 20
2.78364
 30
0.0
 11
185.976
 21
2.78364
 31
0.0
  0
LINE
  8
0
 62
     0
 10
185.976
 20
2.78364
 30
0.0
 11
185.976
 21
16.7831
 31
0.0
  0
LINE
  8
0
 62
     0
 10
119.301
 20
16.7831
 30
0.0
 11
133.3
 21
16.7831
 31
0.0
  0
LINE
  8
0
 62
     0
 10
133.3
 20
16.7831
 30
0.0
 11
133.3
 21
2.78364
 31
0.0
  0
LINE
  8
0
 62
     0
 10
133.3
 20
2.78364
 30
0.0
 11
119.301
 21
2.78364
 31
0.0
  0
LINE
  8
0
 62
     0
 10
119.301
 20
2.78364
 30
0.0
 11
119.301
 21
16.7831
 31
0.0
  0
LINE
  8
0
 62
     0
 10
52.626
 20
16.7831
 30
0.0
 11
66.6253
 21
16.7831
 31
0.0
  0
LINE
  8
0
 62
     0
 10
66.6253
 20
16.7831
 30
0.0
 11
66.6253
 21
2.78364
 31
0.0
  0
LINE
  8
0
 62
     0
 10
66.6253
 20
2.78364
 30
0.0
 11
52.626
 21
2.78364
 31
0.0
  0
LINE
  8
0
 62
     0
 10
52.626
 20
2.78364
 30
0.0
 11
52.626
 21
16.7831
 31
0.0
  0
LINE
  8
0
 62
     0
 10
28.812
 20
16.7831
 30
0.0
 11
42.8128
 21
16.7831
 31
0.0
  0
LINE
  8
0
 62
     0
 10
42.8128
 20
16.7831
 30
0.0
 11
42.8128
 21
2.78364
 31
0.0
  0
LINE
  8
0
 62
     0
 10
42.8128
 20
2.78364
 30
0.0
 11
28.812
 21
2.78364
 31
0.0
  0
LINE
  8
0
 62
     0
 10
28.812
 20
2.78364
 30
0.0
 11
28.812
 21
16.7831
 31
0.0
  0
LINE
  8
0
 62
     0
 10
5.00091
 20
16.7831
 30
0.0
 11
19.0004
 21
16.7831
 31
0.0
  0
LINE
  8
0
 62
     0
 10
19.0004
 20
16.7831
 30
0.0
 11
19.0004
 21
2.78364
 31
0.0
  0
LINE
  8
0
 62
     0
 10
19.0004
 20
2.78364
 30
0.0
 11
5.00091
 21
2.78364
 31
0.0
  0
LINE
  8
0
 62
     0
 10
5.00091
 20
2.78364
 30
0.0
 11
5.00091
 21
16.7831
 31
0.0
  0
LINE
  8
0
 62
     0
 10
269.32
 20
35.833
 30
0.0
 11
283.319
 21
35.833
 31
0.0
  0
LINE
  8
0
 62
     0
 10
283.319
 20
35.833
 30
0.0
 11
283.319
 21
21.8336
 31
0.0
  0
LINE
  8
0
 62
     0
 10
283.319
 20
21.8336
 30
0.0
 11
269.32
 21
21.8336
 31
0.0
  0
LINE
  8
0
 62
     0
 10
269.32
 20
21.8336
 30
0.0
 11
269.32
 21
35.833
 31
0.0
  0
LINE
  8
0
 62
     0
 10
250.27
 20
35.833
 30
0.0
 11
264.269
 21
35.833
 31
0.0
  0
LINE
  8
0
 62
     0
 10
264.269
 20
35.833
 30
0.0
 11
264.269
 21
21.8336
 31
0.0
  0
LINE
  8
0
 62
     0
 10
264.269
 20
21.8336
 30
0.0
 11
250.27
 21
21.8336
 31
0.0
  0
LINE
  8
0
 62
     0
 10
250.27
 20
21.8336
 30
0.0
 11
250.27
 21
35.833
 31
0.0
  0
LINE
  8
0
 62
     0
 10
228.837
 20
35.833
 30
0.0
 11
242.838
 21
35.833
 31
0.0
  0
LINE
  8
0
 62
     0
 10
242.838
 20
35.833
 30
0.0
 11
242.838
 21
21.8336
 31
0.0
  0
LINE
  8
0
 62
     0
 10
242.838
 20
21.8336
 30
0.0
 11
228.837
 21
21.8336
 31
0.0
  0
LINE
  8
0
 62
     0
 10
228.837
 20
21.8336
 30
0.0
 11
228.837
 21
35.833
 31
0.0
  0
LINE
  8
0
 62
     0
 10
207.407
 20
35.833
 30
0.0
 11
221.407
 21
35.833
 31
0.0
  0
LINE
  8
0
 62
     0
 10
221.407
 20
35.833
 30
0.0
 11
221.407
 21
21.8336
 31
0.0
  0
LINE
  8
0
 62
     0
 10
221.407
 20
21.8336
 30
0.0
 11
207.407
 21
21.8336
 31
0.0
  0
LINE
  8
0
 62
     0
 10
207.407
 20
21.8336
 30
0.0
 11
207.407
 21
35.833
 31
0.0
  0
LINE
  8
0
 62
     0
 10
188.357
 20
35.833
 30
0.0
 11
202.357
 21
35.833
 31
0.0
  0
LINE
  8
0
 62
     0
 10
202.357
 20
35.833
 30
0.0
 11
202.357
 21
21.8336
 31
0.0
  0
LINE
  8
0
 62
     0
 10
202.357
 20
21.8336
 30
0.0
 11
188.357
 21
21.8336
 31
0.0
  0
LINE
  8
0
 62
     0
 10
188.357
 20
21.8336
 30
0.0
 11
188.357
 21
35.833
 31
0.0
  0
LINE
  8
0
 62
     0
 10
169.307
 20
35.833
 30
0.0
 11
183.307
 21
35.833
 31
0.0
  0
LINE
  8
0
 62
     0
 10
183.307
 20
35.833
 30
0.0
 11
183.307
 21
21.8336
 31
0.0
  0
LINE
  8
0
 62
     0
 10
183.307
 20
21.8336
 30
0.0
 11
169.307
 21
21.8336
 31
0.0
  0
LINE
  8
0
 62
     0
 10
169.307
 20
21.8336
 30
0.0
 11
169.307
 21
35.833
 31
0.0
  0
LINE
  8
0
 62
     0
 10
150.257
 20
35.833
 30
0.0
 11
164.257
 21
35.833
 31
0.0
  0
LINE
  8
0
 62
     0
 10
164.257
 20
35.833
 30
0.0
 11
164.257
 21
21.8336
 31
0.0
  0
LINE
  8
0
 62
     0
 10
164.257
 20
21.8336
 30
0.0
 11
150.257
 21
21.8336
 31
0.0
  0
LINE
  8
0
 62
     0
 10
150.257
 20
21.8336
 30
0.0
 11
150.257
 21
35.833
 31
0.0
  0
LINE
  8
0
 62
     0
 10
131.207
 20
35.833
 30
0.0
 11
145.207
 21
35.833
 31
0.0
  0
LINE
  8
0
 62
     0
 10
145.207
 20
35.833
 30
0.0
 11
145.207
 21
21.8336
 31
0.0
  0
LINE
  8
0
 62
     0
 10
145.207
 20
21.8336
 30
0.0
 11
131.207
 21
21.8336
 31
0.0
  0
LINE
  8
0
 62
     0
 10
131.207
 20
21.8336
 30
0.0
 11
131.207
 21
35.833
 31
0.0
  0
LINE
  8
0
 62
     0
 10
112.157
 20
35.833
 30
0.0
 11
126.157
 21
35.833
 31
0.0
  0
LINE
  8
0
 62
     0
 10
126.157
 20
35.833
 30
0.0
 11
126.157
 21
21.8336
 31
0.0
  0
LINE
  8
0
 62
     0
 10
126.157
 20
21.8336
 30
0.0
 11
112.157
 21
21.8336
 31
0.0
  0
LINE
  8
0
 62
     0
 10
112.157
 20
21.8336
 30
0.0
 11
112.157
 21
35.833
 31
0.0
  0
LINE
  8
0
 62
     0
 10
93.1072
 20
35.833
 30
0.0
 11
107.107
 21
35.833
 31
0.0
  0
LINE
  8
0
 62
     0
 10
107.107
 20
35.833
 30
0.0
 11
107.107
 21
21.8336
 31
0.0
  0
LINE
  8
0
 62
     0
 10
107.107
 20
21.8336
 30
0.0
 11
93.1072
 21
21.8336
 31
0.0
  0
LINE
  8
0
 62
     0
 10
93.1072
 20
21.8336
 30
0.0
 11
93.1072
 21
35.833
 31
0.0
  0
LINE
  8
0
 62
     0
 10
74.0572
 20
35.833
 30
0.0
 11
88.0565
 21
35.833
 31
0.0
  0
LINE
  8
0
 62
     0
 10
88.0565
 20
35.833
 30
0.0
 11
88.0565
 21
21.8336
 31
0.0
  0
LINE
  8
0
 62
     0
 10
88.0565
 20
21.8336
 30
0.0
 11
74.0572
 21
21.8336
 31
0.0
  0
LINE
  8
0
 62
     0
 10
74.0572
 20
21.8336
 30
0.0
 11
74.0572
 21
35.833
 31
0.0
  0
LINE
  8
0
 62
     0
 10
55.0072
 20
35.833
 30
0.0
 11
69.0065
 21
35.833
 31
0.0
  0
LINE
  8
0
 62
     0
 10
69.0065
 20
35.833
 30
0.0
 11
69.0065
 21
21.8336
 31
0.0
  0
LINE
  8
0
 62
     0
 10
69.0065
 20
21.8336
 30
0.0
 11
55.0072
 21
21.8336
 31
0.0
  0
LINE
  8
0
 62
     0
 10
55.0072
 20
21.8336
 30
0.0
 11
55.0072
 21
35.833
 31
0.0
  0
LINE
  8
0
 62
     0
 10
35.9572
 20
35.833
 30
0.0
 11
49.9565
 21
35.833
 31
0.0
  0
LINE
  8
0
 62
     0
 10
49.9565
 20
35.833
 30
0.0
 11
49.9565
 21
21.8336
 31
0.0
  0
LINE
  8
0
 62
     0
 10
49.9565
 20
21.8336
 30
0.0
 11
35.9572
 21
21.8336
 31
0.0
  0
LINE
  8
0
 62
     0
 10
35.9572
 20
21.8336
 30
0.0
 11
35.9572
 21
35.833
 31
0.0
  0
LINE
  8
0
 62
     0
 10
9.76203
 20
35.833
 30
0.0
 11
23.7629
 21
35.833
 31
0.0
  0
LINE
  8
0
 62
     0
 10
23.7629
 20
35.833
 30
0.0
 11
23.7629
 21
21.8336
 31
0.0
  0
LINE
  8
0
 62
     0
 10
23.7629
 20
21.8336
 30
0.0
 11
9.76203
 21
21.8336
 31
0.0
  0
LINE
  8
0
 62
     0
 10
9.76203
 20
21.8336
 30
0.0
 11
9.76203
 21
35.833
 31
0.0
  0
LINE
  8
0
 62
     0
 10
269.32
 20
54.8831
 30
0.0
 11
283.319
 21
54.8831
 31
0.0
  0
LINE
  8
0
 62
     0
 10
283.319
 20
54.8831
 30
0.0
 11
283.319
 21
40.8838
 31
0.0
  0
LINE
  8
0
 62
     0
 10
283.319
 20
40.8838
 30
0.0
 11
269.32
 21
40.8838
 31
0.0
  0
LINE
  8
0
 62
     0
 10
269.32
 20
40.8838
 30
0.0
 11
269.32
 21
54.8831
 31
0.0
  0
LINE
  8
0
 62
     0
 10
245.507
 20
54.8831
 30
0.0
 11
259.507
 21
54.8831
 31
0.0
  0
LINE
  8
0
 62
     0
 10
259.507
 20
54.8831
 30
0.0
 11
259.507
 21
40.8838
 31
0.0
  0
LINE
  8
0
 62
     0
 10
259.507
 20
40.8838
 30
0.0
 11
245.507
 21
40.8838
 31
0.0
  0
LINE
  8
0
 62
     0
 10
245.507
 20
40.8838
 30
0.0
 11
245.507
 21
54.8831
 31
0.0
  0
LINE
  8
0
 62
     0
 10
221.695
 20
54.8831
 30
0.0
 11
235.694
 21
54.8831
 31
0.0
  0
LINE
  8
0
 62
     0
 10
235.694
 20
54.8831
 30
0.0
 11
235.694
 21
40.8838
 31
0.0
  0
LINE
  8
0
 62
     0
 10
235.694
 20
40.8838
 30
0.0
 11
221.695
 21
40.8838
 31
0.0
  0
LINE
  8
0
 62
     0
 10
221.695
 20
40.8838
 30
0.0
 11
221.695
 21
54.8831
 31
0.0
  0
LINE
  8
0
 62
     0
 10
202.645
 20
54.8831
 30
0.0
 11
216.644
 21
54.8831
 31
0.0
  0
LINE
  8
0
 62
     0
 10
216.644
 20
54.8831
 30
0.0
 11
216.644
 21
40.8838
 31
0.0
  0
LINE
  8
0
 62
     0
 10
216.644
 20
40.8838
 30
0.0
 11
202.645
 21
40.8838
 31
0.0
  0
LINE
  8
0
 62
     0
 10
202.645
 20
40.8838
 30
0.0
 11
202.645
 21
54.8831
 31
0.0
  0
LINE
  8
0
 62
     0
 10
183.595
 20
54.8831
 30
0.0
 11
197.594
 21
54.8831
 31
0.0
  0
LINE
  8
0
 62
     0
 10
197.594
 20
54.8831
 30
0.0
 11
197.594
 21
40.8838
 31
0.0
  0
LINE
  8
0
 62
     0
 10
197.594
 20
40.8838
 30
0.0
 11
183.595
 21
40.8838
 31
0.0
  0
LINE
  8
0
 62
     0
 10
183.595
 20
40.8838
 30
0.0
 11
183.595
 21
54.8831
 31
0.0
  0
LINE
  8
0
 62
     0
 10
164.545
 20
54.8831
 30
0.0
 11
178.544
 21
54.8831
 31
0.0
  0
LINE
  8
0
 62
     0
 10
178.544
 20
54.8831
 30
0.0
 11
178.544
 21
40.8838
 31
0.0
  0
LINE
  8
0
 62
     0
 10
178.544
 20
40.8838
 30
0.0
 11
164.545
 21
40.8838
 31
0.0
  0
LINE
  8
0
 62
     0
 10
164.545
 20
40.8838
 30
0.0
 11
164.545
 21
54.8831
 31
0.0
  0
LINE
  8
0
 62
     0
 10
145.495
 20
54.8831
 30
0.0
 11
159.494
 21
54.8831
 31
0.0
  0
LINE
  8
0
 62
     0
 10
159.494
 20
54.8831
 30
0.0
 11
159.494
 21
40.8838
 31
0.0
  0
LINE
  8
0
 62
     0
 10
159.494
 20
40.8838
 30
0.0
 11
145.495
 21
40.8838
 31
0.0
  0
LINE
  8
0
 62
     0
 10
145.495
 20
40.8838
 30
0.0
 11
145.495
 21
54.8831
 31
0.0
  0
LINE
  8
0
 62
     0
 10
126.445
 20
54.8831
 30
0.0
 11
140.444
 21
54.8831
 31
0.0
  0
LINE
  8
0
 62
     0
 10
140.444
 20
54.8831
 30
0.0
 11
140.444
 21
40.8838
 31
0.0
  0
LINE
  8
0
 62
     0
 10
140.444
 20
40.8838
 30
0.0
 11
126.445
 21
40.8838
 31
0.0
  0
LINE
  8
0
 62
     0
 10
126.445
 20
40.8838
 30
0.0
 11
126.445
 21
54.8831
 31
0.0
  0
LINE
  8
0
 62
     0
 10
107.395
 20
54.8831
 30
0.0
 11
121.394
 21
54.8831
 31
0.0
  0
LINE
  8
0
 62
     0
 10
121.394
 20
54.8831
 30
0.0
 11
121.394
 21
40.8838
 31
0.0
  0
LINE
  8
0
 62
     0
 10
121.394
 20
40.8838
 30
0.0
 11
107.395
 21
40.8838
 31
0.0
  0
LINE
  8
0
 62
     0
 10
107.395
 20
40.8838
 30
0.0
 11
107.395
 21
54.8831
 31
0.0
  0
LINE
  8
0
 62
     0
 10
88.3447
 20
54.8831
 30
0.0
 11
102.344
 21
54.8831
 31
0.0
  0
LINE
  8
0
 62
     0
 10
102.344
 20
54.8831
 30
0.0
 11
102.344
 21
40.8838
 31
0.0
  0
LINE
  8
0
 62
     0
 10
102.344
 20
40.8838
 30
0.0
 11
88.3447
 21
40.8838
 31
0.0
  0
LINE
  8
0
 62
     0
 10
88.3447
 20
40.8838
 30
0.0
 11
88.3447
 21
54.8831
 31
0.0
  0
LINE
  8
0
 62
     0
 10
69.2947
 20
54.8831
 30
0.0
 11
83.294
 21
54.8831
 31
0.0
  0
LINE
  8
0
 62
     0
 10
83.294
 20
54.8831
 30
0.0
 11
83.294
 21
40.8838
 31
0.0
  0
LINE
  8
0
 62
     0
 10
83.294
 20
40.8838
 30
0.0
 11
69.2947
 21
40.8838
 31
0.0
  0
LINE
  8
0
 62
     0
 10
69.2947
 20
40.8838
 30
0.0
 11
69.2947
 21
54.8831
 31
0.0
  0
LINE
  8
0
 62
     0
 10
50.2447
 20
54.8831
 30
0.0
 11
64.244
 21
54.8831
 31
0.0
  0
LINE
  8
0
 62
     0
 10
64.244
 20
54.8831
 30
0.0
 11
64.244
 21
40.8838
 31
0.0
  0
LINE
  8
0
 62
     0
 10
64.244
 20
40.8838
 30
0.0
 11
50.2447
 21
40.8838
 31
0.0
  0
LINE
  8
0
 62
     0
 10
50.2447
 20
40.8838
 30
0.0
 11
50.2447
 21
54.8831
 31
0.0
  0
LINE
  8
0
 62
     0
 10
31.1947
 20
54.8831
 30
0.0
 11
45.194
 21
54.8831
 31
0.0
  0
LINE
  8
0
 62
     0
 10
45.194
 20
54.8831
 30
0.0
 11
45.194
 21
40.8838
 31
0.0
  0
LINE
  8
0
 62
     0
 10
45.194
 20
40.8838
 30
0.0
 11
31.1947
 21
40.8838
 31
0.0
  0
LINE
  8
0
 62
     0
 10
31.1947
 20
40.8838
 30
0.0
 11
31.1947
 21
54.8831
 31
0.0
  0
LINE
  8
0
 62
     0
 10
7.38216
 20
54.8831
 30
0.0
 11
21.3817
 21
54.8831
 31
0.0
  0
LINE
  8
0
 62
     0
 10
21.3817
 20
54.8831
 30
0.0
 11
21.3817
 21
40.8838
 31
0.0
  0
LINE
  8
0
 62
     0
 10
21.3817
 20
40.8838
 30
0.0
 11
7.38216
 21
40.8838
 31
0.0
  0
LINE
  8
0
 62
     0
 10
7.38216
 20
40.8838
 30
0.0
 11
7.38216
 21
54.8831
 31
0.0
  0
LINE
  8
0
 62
     0
 10
262.176
 20
73.9331
 30
0.0
 11
276.175
 21
73.9331
 31
0.0
  0
LINE
  8
0
 62
     0
 10
276.175
 20
73.9331
 30
0.0
 11
276.175
 21
59.9338
 31
0.0
  0
LINE
  8
0
 62
     0
 10
276.175
 20
59.9338
 30
0.0
 11
262.176
 21
59.9338
 31
0.0
  0
LINE
  8
0
 62
     0
 10
262.176
 20
59.9338
 30
0.0
 11
262.176
 21
73.9331
 31
0.0
  0
LINE
  8
0
 62
     0
 10
235.982
 20
73.9331
 30
0.0
 11
249.982
 21
73.9331
 31
0.0
  0
LINE
  8
0
 62
     0
 10
249.982
 20
73.9331
 30
0.0
 11
249.982
 21
59.9338
 31
0.0
  0
LINE
  8
0
 62
     0
 10
249.982
 20
59.9338
 30
0.0
 11
235.982
 21
59.9338
 31
0.0
  0
LINE
  8
0
 62
     0
 10
235.982
 20
59.9338
 30
0.0
 11
235.982
 21
73.9331
 31
0.0
  0
LINE
  8
0
 62
     0
 10
216.932
 20
73.9331
 30
0.0
 11
230.932
 21
73.9331
 31
0.0
  0
LINE
  8
0
 62
     0
 10
230.932
 20
73.9331
 30
0.0
 11
230.932
 21
59.9338
 31
0.0
  0
LINE
  8
0
 62
     0
 10
230.932
 20
59.9338
 30
0.0
 11
216.932
 21
59.9338
 31
0.0
  0
LINE
  8
0
 62
     0
 10
216.932
 20
59.9338
 30
0.0
 11
216.932
 21
73.9331
 31
0.0
  0
LINE
  8
0
 62
     0
 10
197.882
 20
73.9331
 30
0.0
 11
211.882
 21
73.9331
 31
0.0
  0
LINE
  8
0
 62
     0
 10
211.882
 20
73.9331
 30
0.0
 11
211.882
 21
59.9338
 31
0.0
  0
LINE
  8
0
 62
     0
 10
211.882
 20
59.9338
 30
0.0
 11
197.882
 21
59.9338
 31
0.0
  0
LINE
  8
0
 62
     0
 10
197.882
 20
59.9338
 30
0.0
 11
197.882
 21
73.9331
 31
0.0
  0
LINE
  8
0
 62
     0
 10
178.832
 20
73.9331
 30
0.0
 11
192.832
 21
73.9331
 31
0.0
  0
LINE
  8
0
 62
     0
 10
192.832
 20
73.9331
 30
0.0
 11
192.832
 21
59.9338
 31
0.0
  0
LINE
  8
0
 62
     0
 10
192.832
 20
59.9338
 30
0.0
 11
178.832
 21
59.9338
 31
0.0
  0
LINE
  8
0
 62
     0
 10
178.832
 20
59.9338
 30
0.0
 11
178.832
 21
73.9331
 31
0.0
  0
LINE
  8
0
 62
     0
 10
159.782
 20
73.9331
 30
0.0
 11
173.782
 21
73.9331
 31
0.0
  0
LINE
  8
0
 62
     0
 10
173.782
 20
73.9331
 30
0.0
 11
173.782
 21
59.9338
 31
0.0
  0
LINE
  8
0
 62
     0
 10
173.782
 20
59.9338
 30
0.0
 11
159.782
 21
59.9338
 31
0.0
  0
LINE
  8
0
 62
     0
 10
159.782
 20
59.9338
 30
0.0
 11
159.782
 21
73.9331
 31
0.0
  0
LINE
  8
0
 62
     0
 10
140.732
 20
73.9331
 30
0.0
 11
154.732
 21
73.9331
 31
0.0
  0
LINE
  8
0
 62
     0
 10
154.732
 20
73.9331
 30
0.0
 11
154.732
 21
59.9338
 31
0.0
  0
LINE
  8
0
 62
     0
 10
154.732
 20
59.9338
 30
0.0
 11
140.732
 21
59.9338
 31
0.0
  0
LINE
  8
0
 62
     0
 10
140.732
 20
59.9338
 30
0.0
 11
140.732
 21
73.9331
 31
0.0
  0
LINE
  8
0
 62
     0
 10
121.682
 20
73.9331
 30
0.0
 11
135.682
 21
73.9331
 31
0.0
  0
LINE
  8
0
 62
     0
 10
135.682
 20
73.9331
 30
0.0
 11
135.682
 21
59.9338
 31
0.0
  0
LINE
  8
0
 62
     0
 10
135.682
 20
59.9338
 30
0.0
 11
121.682
 21
59.9338
 31
0.0
  0
LINE
  8
0
 62
     0
 10
121.682
 20
59.9338
 30
0.0
 11
121.682
 21
73.9331
 31
0.0
  0
LINE
  8
0
 62
     0
 10
102.632
 20
73.9331
 30
0.0
 11
116.632
 21
73.9331
 31
0.0
  0
LINE
  8
0
 62
     0
 10
116.632
 20
73.9331
 30
0.0
 11
116.632
 21
59.9338
 31
0.0
  0
LINE
  8
0
 62
     0
 10
116.632
 20
59.9338
 30
0.0
 11
102.632
 21
59.9338
 31
0.0
  0
LINE
  8
0
 62
     0
 10
102.632
 20
59.9338
 30
0.0
 11
102.632
 21
73.9331
 31
0.0
  0
LINE
  8
0
 62
     0
 10
83.5822
 20
73.9331
 30
0.0
 11
97.5815
 21
73.9331
 31
0.0
  0
LINE
  8
0
 62
     0
 10
97.5815
 20
73.9331
 30
0.0
 11
97.5815
 21
59.9338
 31
0.0
  0
LINE
  8
0
 62
     0
 10
97.5815
 20
59.9338
 30
0.0
 11
83.5822
 21
59.9338
 31
0.0
  0
LINE
  8
0
 62
     0
 10
83.5822
 20
59.9338
 30
0.0
 11
83.5822
 21
73.9331
 31
0.0
  0
LINE
  8
0
 62
     0
 10
64.5322
 20
73.9331
 30
0.0
 11
78.5315
 21
73.9331
 31
0.0
  0
LINE
  8
0
 62
     0
 10
78.5315
 20
73.9331
 30
0.0
 11
78.5315
 21
59.9338
 31
0.0
  0
LINE
  8
0
 62
     0
 10
78.5315
 20
59.9338
 30
0.0
 11
64.5322
 21
59.9338
 31
0.0
  0
LINE
  8
0
 62
     0
 10
64.5322
 20
59.9338
 30
0.0
 11
64.5322
 21
73.9331
 31
0.0
  0
LINE
  8
0
 62
     0
 10
45.4822
 20
73.9331
 30
0.0
 11
59.4815
 21
73.9331
 31
0.0
  0
LINE
  8
0
 62
     0
 10
59.4815
 20
73.9331
 30
0.0
 11
59.4815
 21
59.9338
 31
0.0
  0
LINE
  8
0
 62
     0
 10
59.4815
 20
59.9338
 30
0.0
 11
45.4822
 21
59.9338
 31
0.0
  0
LINE
  8
0
 62
     0
 10
45.4822
 20
59.9338
 30
0.0
 11
45.4822
 21
73.9331
 31
0.0
  0
LINE
  8
0
 62
     0
 10
26.4322
 20
73.9331
 30
0.0
 11
40.4315
 21
73.9331
 31
0.0
  0
LINE
  8
0
 62
     0
 10
40.4315
 20
73.9331
 30
0.0
 11
40.4315
 21
59.9338
 31
0.0
  0
LINE
  8
0
 62
     0
 10
40.4315
 20
59.9338
 30
0.0
 11
26.4322
 21
59.9338
 31
0.0
  0
LINE
  8
0
 62
     0
 10
26.4322
 20
59.9338
 30
0.0
 11
26.4322
 21
73.9331
 31
0.0
  0
LINE
  8
0
 62
     0
 10
5.00091
 20
73.9331
 30
0.0
 11
19.0004
 21
73.9331
 31
0.0
  0
LINE
  8
0
 62
     0
 10
19.0004
 20
73.9331
 30
0.0
 11
19.0004
 21
59.9338
 31
0.0
  0
LINE
  8
0
 62
     0
 10
19.0004
 20
59.9338
 30
0.0
 11
5.00091
 21
59.9338
 31
0.0
  0
LINE
  8
0
 62
     0
 10
5.00091
 20
59.9338
 30
0.0
 11
5.00091
 21
73.9331
 31
0.0
  0
LINE
  8
0
 62
     0
 10
269.32
 20
92.9831
 30
0.0
 11
283.319
 21
92.9831
 31
0.0
  0
LINE
  8
0
 62
     0
 10
283.319
 20
92.9831
 30
0.0
 11
283.319
 21
78.9838
 31
0.0
  0
LINE
  8
0
 62
     0
 10
283.319
 20
78.9838
 30
0.0
 11
269.32
 21
78.9838
 31
0.0
  0
LINE
  8
0
 62
     0
 10
269.32
 20
78.9838
 30
0.0
 11
269.32
 21
92.9831
 31
0.0
  0
LINE
  8
0
 62
     0
 10
250.27
 20
92.9831
 30
0.0
 11
264.269
 21
92.9831
 31
0.0
  0
LINE
  8
0
 62
     0
 10
264.269
 20
92.9831
 30
0.0
 11
264.269
 21
78.9838
 31
0.0
  0
LINE
  8
0
 62
     0
 10
264.269
 20
78.9838
 30
0.0
 11
250.27
 21
78.9838
 31
0.0
  0
LINE
  8
0
 62
     0
 10
250.27
 20
78.9838
 30
0.0
 11
250.27
 21
92.9831
 31
0.0
  0
LINE
  8
0
 62
     0
 10
231.22
 20
92.9831
 30
0.0
 11
245.219
 21
92.9831
 31
0.0
  0
LINE
  8
0
 62
     0
 10
245.219
 20
92.9831
 30
0.0
 11
245.219
 21
78.9838
 31
0.0
  0
LINE
  8
0
 62
     0
 10
245.219
 20
78.9838
 30
0.0
 11
231.22
 21
78.9838
 31
0.0
  0
LINE
  8
0
 62
     0
 10
231.22
 20
78.9838
 30
0.0
 11
231.22
 21
92.9831
 31
0.0
  0
LINE
  8
0
 62
     0
 10
212.17
 20
92.9831
 30
0.0
 11
226.169
 21
92.9831
 31
0.0
  0
LINE
  8
0
 62
     0
 10
226.169
 20
92.9831
 30
0.0
 11
226.169
 21
78.9838
 31
0.0
  0
LINE
  8
0
 62
     0
 10
226.169
 20
78.9838
 30
0.0
 11
212.17
 21
78.9838
 31
0.0
  0
LINE
  8
0
 62
     0
 10
212.17
 20
78.9838
 30
0.0
 11
212.17
 21
92.9831
 31
0.0
  0
LINE
  8
0
 62
     0
 10
193.12
 20
92.9831
 30
0.0
 11
207.119
 21
92.9831
 31
0.0
  0
LINE
  8
0
 62
     0
 10
207.119
 20
92.9831
 30
0.0
 11
207.119
 21
78.9838
 31
0.0
  0
LINE
  8
0
 62
     0
 10
207.119
 20
78.9838
 30
0.0
 11
193.12
 21
78.9838
 31
0.0
  0
LINE
  8
0
 62
     0
 10
193.12
 20
78.9838
 30
0.0
 11
193.12
 21
92.9831
 31
0.0
  0
LINE
  8
0
 62
     0
 10
174.07
 20
92.9831
 30
0.0
 11
188.069
 21
92.9831
 31
0.0
  0
LINE
  8
0
 62
     0
 10
188.069
 20
92.9831
 30
0.0
 11
188.069
 21
78.9838
 31
0.0
  0
LINE
  8
0
 62
     0
 10
188.069
 20
78.9838
 30
0.0
 11
174.07
 21
78.9838
 31
0.0
  0
LINE
  8
0
 62
     0
 10
174.07
 20
78.9838
 30
0.0
 11
174.07
 21
92.9831
 31
0.0
  0
LINE
  8
0
 62
     0
 10
155.02
 20
92.9831
 30
0.0
 11
169.019
 21
92.9831
 31
0.0
  0
LINE
  8
0
 62
     0
 10
169.019
 20
92.9831
 30
0.0
 11
169.019
 21
78.9838
 31
0.0
  0
LINE
  8
0
 62
     0
 10
169.019
 20
78.9838
 30
0.0
 11
155.02
 21
78.9838
 31
0.0
  0
LINE
  8
0
 62
     0
 10
155.02
 20
78.9838
 30
0.0
 11
155.02
 21
92.9831
 31
0.0
  0
LINE
  8
0
 62
     0
 10
135.97
 20
92.9831
 30
0.0
 11
149.969
 21
92.9831
 31
0.0
  0
LINE
  8
0
 62
     0
 10
149.969
 20
92.9831
 30
0.0
 11
149.969
 21
78.9838
 31
0.0
  0
LINE
  8
0
 62
     0
 10
149.969
 20
78.9838
 30
0.0
 11
135.97
 21
78.9838
 31
0.0
  0
LINE
  8
0
 62
     0
 10
135.97
 20
78.9838
 30
0.0
 11
135.97
 21
92.9831
 31
0.0
  0
LINE
  8
0
 62
     0
 10
116.918
 20
92.9831
 30
0.0
 11
130.919
 21
92.9831
 31
0.0
  0
LINE
  8
0
 62
     0
 10
130.919
 20
92.9831
 30
0.0
 11
130.919
 21
78.9838
 31
0.0
  0
LINE
  8
0
 62
     0
 10
130.919
 20
78.9838
 30
0.0
 11
116.918
 21
78.9838
 31
0.0
  0
LINE
  8
0
 62
     0
 10
116.918
 20
78.9838
 30
0.0
 11
116.918
 21
92.9831
 31
0.0
  0
LINE
  8
0
 62
     0
 10
97.8683
 20
92.9831
 30
0.0
 11
111.869
 21
92.9831
 31
0.0
  0
LINE
  8
0
 62
     0
 10
111.869
 20
92.9831
 30
0.0
 11
111.869
 21
78.9838
 31
0.0
  0
LINE
  8
0
 62
     0
 10
111.869
 20
78.9838
 30
0.0
 11
97.8683
 21
78.9838
 31
0.0
  0
LINE
  8
0
 62
     0
 10
97.8683
 20
78.9838
 30
0.0
 11
97.8683
 21
92.9831
 31
0.0
  0
LINE
  8
0
 62
     0
 10
78.8197
 20
92.9831
 30
0.0
 11
92.819
 21
92.9831
 31
0.0
  0
LINE
  8
0
 62
     0
 10
92.819
 20
92.9831
 30
0.0
 11
92.819
 21
78.9838
 31
0.0
  0
LINE
  8
0
 62
     0
 10
92.819
 20
78.9838
 30
0.0
 11
78.8197
 21
78.9838
 31
0.0
  0
LINE
  8
0
 62
     0
 10
78.8197
 20
78.9838
 30
0.0
 11
78.8197
 21
92.9831
 31
0.0
  0
LINE
  8
0
 62
     0
 10
59.7697
 20
92.9831
 30
0.0
 11
73.769
 21
92.9831
 31
0.0
  0
LINE
  8
0
 62
     0
 10
73.769
 20
92.9831
 30
0.0
 11
73.769
 21
78.9838
 31
0.0
  0
LINE
  8
0
 62
     0
 10
73.769
 20
78.9838
 30
0.0
 11
59.7697
 21
78.9838
 31
0.0
  0
LINE
  8
0
 62
     0
 10
59.7697
 20
78.9838
 30
0.0
 11
59.7697
 21
92.9831
 31
0.0
  0
LINE
  8
0
 62
     0
 10
40.7197
 20
92.9831
 30
0.0
 11
54.719
 21
92.9831
 31
0.0
  0
LINE
  8
0
 62
     0
 10
54.719
 20
92.9831
 30
0.0
 11
54.719
 21
78.9838
 31
0.0
  0
LINE
  8
0
 62
     0
 10
54.719
 20
78.9838
 30
0.0
 11
40.7197
 21
78.9838
 31
0.0
  0
LINE
  8
0
 62
     0
 10
40.7197
 20
78.9838
 30
0.0
 11
40.7197
 21
92.9831
 31
0.0
  0
LINE
  8
0
 62
     0
 10
21.6697
 20
92.9831
 30
0.0
 11
35.669
 21
92.9831
 31
0.0
  0
LINE
  8
0
 62
     0
 10
35.669
 20
92.9831
 30
0.0
 11
35.669
 21
78.9838
 31
0.0
  0
LINE
  8
0
 62
     0
 10
35.669
 20
78.9838
 30
0.0
 11
21.6697
 21
78.9838
 31
0.0
  0
LINE
  8
0
 62
     0
 10
21.6697
 20
78.9838
 30
0.0
 11
21.6697
 21
92.9831
 31
0.0
  0
LINE
  8
0
 62
     0
 10
2.61965
 20
92.9831
 30
0.0
 11
16.6192
 21
92.9831
 31
0.0
  0
LINE
  8
0
 62
     0
 10
16.6192
 20
92.9831
 30
0.0
 11
16.6192
 21
78.9838
 31
0.0
  0
LINE
  8
0
 62
     0
 10
16.6192
 20
78.9838
 30
0.0
 11
2.61965
 21
78.9838
 31
0.0
  0
LINE
  8
0
 62
     0
 10
2.61965
 20
78.9838
 30
0.0
 11
2.61965
 21
92.9831
 31
0.0
  0
ENDSEC
  0
EOF
